<?xml version="1.0" standalone="no"?>
<!DOCTYPE svg PUBLIC "-//W3C//DTD SVG 20010904//EN"
 "http://www.w3.org/TR/2001/REC-SVG-20010904/DTD/svg10.dtd">
<svg version="1.0" xmlns="http://www.w3.org/2000/svg"
 width="500.000000pt" height="174.000000pt" viewBox="0 0 500.000000 174.000000"
 preserveAspectRatio="xMidYMid meet">

<g transform="translate(0.000000,174.000000) scale(0.100000,-0.100000)"
fill="#000000" stroke="none">
<path d="M2580 1582 l0 -81 -272 -3 c-267 -3 -274 -4 -315 -27 -73 -42 -74
-48 -71 -369 l3 -284 113 87 112 86 0 155 0 154 215 0 215 0 0 -80 c0 -44 2
-80 5 -80 8 0 325 253 325 259 -1 6 -265 218 -310 250 -19 13 -20 11 -20 -67z"/>
<path d="M130 1413 c-14 -3 -30 -9 -36 -14 -7 -6 -14 -108 -20 -286 -15 -476
-8 -553 53 -553 15 0 35 4 43 10 12 7 11 12 -5 30 -19 21 -20 38 -20 329 0
204 4 312 11 325 9 15 13 9 23 -41 22 -113 99 -408 121 -468 25 -66 94 -145
127 -145 65 0 130 126 203 390 29 102 53 187 56 189 2 2 2 -15 -1 -40 -18
-150 -32 -411 -24 -471 12 -95 38 -138 85 -138 27 0 30 11 10 43 -24 36 -28
121 -17 342 13 270 28 413 48 448 19 36 4 57 -41 57 -69 0 -85 -33 -145 -300
-62 -272 -125 -425 -174 -418 -16 2 -31 21 -54 68 -54 107 -132 409 -148 571
-5 47 -10 58 -31 68 -14 6 -28 10 -32 10 -4 -1 -18 -4 -32 -6z"/>
<path d="M3204 1388 c-38 -26 -57 -49 -84 -101 -30 -60 -34 -78 -34 -141 0
-58 5 -82 27 -129 31 -63 71 -99 238 -220 141 -102 168 -156 95 -195 -22 -11
-54 -16 -111 -15 -92 0 -120 10 -178 57 -56 46 -97 52 -97 15 0 -51 46 -84
161 -114 137 -36 303 5 336 82 28 69 -6 115 -177 238 -174 124 -221 184 -221
279 0 156 139 260 236 175 54 -48 79 -157 61 -274 -6 -43 -4 -53 12 -68 11
-10 26 -15 35 -11 25 9 39 75 27 126 -5 24 -10 57 -10 75 0 86 -67 200 -135
233 -63 31 -123 27 -181 -12z"/>
<path d="M1597 1229 c-3 -99 -8 -183 -10 -186 -3 -3 -23 9 -44 26 -80 64 -140
49 -190 -46 -41 -78 -63 -172 -63 -269 1 -135 51 -204 148 -204 50 0 75 11
118 52 l31 29 8 -38 c8 -46 21 -63 47 -63 17 0 19 5 15 33 -3 17 -9 57 -12 87
-8 68 11 491 27 622 11 90 11 99 -7 118 -10 11 -28 20 -40 20 -22 0 -22 -3
-28 -181z m-55 -214 c53 -53 59 -163 17 -300 -45 -147 -165 -172 -200 -43 -22
84 16 276 67 338 33 39 80 41 116 5z"/>
<path d="M2296 1249 c-15 -4 -37 -15 -47 -25 -30 -27 -52 -98 -47 -149 6 -45
14 -60 117 -206 l40 -57 -49 -6 c-28 -4 -50 -10 -50 -15 0 -12 132 -69 199
-87 59 -15 136 -8 181 16 24 13 26 38 5 46 -11 5 -15 23 -15 74 0 38 -4 80 -9
93 -11 27 -216 286 -240 303 -25 17 -53 21 -85 13z m96 -76 c23 -32 78 -102
121 -156 44 -53 77 -100 73 -104 -4 -4 -10 -3 -14 3 -4 6 -54 70 -111 142 -68
87 -111 132 -123 132 -11 0 -29 5 -40 11 -17 9 -18 13 -7 20 34 21 58 9 101
-48z"/>
<path d="M4690 1113 c-64 -23 -118 -137 -140 -295 -24 -165 47 -278 174 -278
58 0 111 22 154 63 48 45 65 82 52 107 -15 29 -36 25 -50 -10 -18 -43 -95
-108 -137 -116 -93 -18 -140 74 -121 235 17 142 73 241 138 241 46 0 64 -48
58 -162 -4 -80 -2 -88 15 -94 32 -10 42 13 45 112 5 115 -3 130 -89 173 -63
31 -72 34 -99 24z"/>
<path d="M2792 1024 l-112 -86 0 -154 0 -154 -215 0 -215 0 0 84 0 85 -162
-130 c-90 -72 -164 -133 -165 -137 -1 -4 71 -64 160 -134 l162 -128 3 80 3 79
272 3 c253 3 275 4 312 24 77 40 80 51 83 372 2 155 -1 282 -6 282 -4 0 -59
-39 -120 -86z"/>
<path d="M960 1073 c-39 -35 -75 -134 -91 -245 -16 -110 -1 -185 46 -236 30
-33 38 -36 98 -40 78 -5 138 19 187 74 33 38 38 65 14 84 -13 12 -22 6 -59
-37 -51 -58 -86 -76 -141 -71 -49 4 -84 51 -84 111 0 37 2 39 23 31 12 -4 47
-8 79 -8 48 -1 61 3 95 30 58 47 83 90 83 142 0 72 -55 140 -145 178 -49 20
-71 18 -105 -13z m157 -82 c55 -82 4 -211 -84 -211 -77 0 -105 53 -78 146 22
74 53 106 102 102 30 -2 42 -10 60 -37z"/>
<path d="M4103 1093 c-17 -6 -19 -494 -3 -524 6 -11 21 -19 36 -19 l26 0 -7
103 c-5 69 -3 123 5 163 25 121 112 243 163 230 57 -14 84 -113 94 -343 6
-139 8 -153 26 -159 36 -11 40 8 35 183 -4 139 -8 178 -26 228 -25 70 -72 118
-131 136 -37 11 -44 10 -69 -8 -15 -11 -37 -35 -49 -54 -53 -81 -52 -81 -53
-1 0 74 -6 82 -47 65z"/>
<path d="M3660 1069 c-8 -14 -10 -83 -8 -207 3 -177 4 -189 27 -226 32 -51 75
-76 133 -76 35 0 54 6 76 25 25 21 31 23 36 9 12 -30 6 -175 -8 -209 -35 -84
-158 -85 -243 -3 -38 37 -63 32 -63 -12 0 -60 118 -117 225 -108 59 5 94 24
129 72 20 26 21 46 28 309 3 155 11 302 17 327 17 76 14 99 -14 106 -47 12
-53 -4 -57 -169 -3 -132 -7 -159 -27 -205 -36 -81 -78 -106 -134 -81 -33 15
-48 43 -57 109 -8 59 3 311 15 343 11 27 -60 24 -75 -4z"/>
<path d="M3600 180 c0 -16 4 -30 9 -30 4 0 6 11 4 24 -4 17 0 25 14 29 15 4
14 5 -4 6 -19 1 -23 -4 -23 -29z"/>
<path d="M3919 193 c0 -10 -2 -33 -3 -50 -2 -18 0 -33 5 -33 5 0 9 23 9 50 0
28 -2 50 -5 50 -3 0 -5 -8 -6 -17z"/>
<path d="M4091 156 c0 -28 3 -45 6 -38 2 6 13 12 23 12 10 0 21 4 24 9 4 5 -3
7 -14 4 -24 -6 -38 22 -23 47 9 13 8 17 -3 17 -10 0 -14 -14 -13 -51z"/>
<path d="M4271 194 c0 -11 3 -14 6 -6 3 7 2 16 -1 19 -3 4 -6 -2 -5 -13z"/>
<path d="M4430 156 c0 -28 4 -46 8 -40 4 7 16 13 26 15 11 2 21 10 22 17 1 7
0 8 -3 2 -2 -5 -13 -10 -24 -10 -21 0 -27 38 -9 56 7 7 6 11 -5 11 -11 0 -15
-12 -15 -51z"/>
<path d="M4499 195 c-2 -11 -2 -36 2 -55 6 -32 6 -33 8 -6 1 22 5 27 19 22 15
-6 16 -5 1 7 -9 7 -18 21 -21 32 -4 20 -4 20 -9 0z"/>
<path d="M3530 153 c0 -24 2 -43 4 -43 8 0 12 60 4 72 -4 8 -8 -4 -8 -29z"/>
<path d="M3788 173 c-2 -10 -1 -29 3 -43 6 -20 7 -17 8 18 1 44 -4 54 -11 25z"/>
<path d="M4157 155 c7 -48 13 -58 13 -22 0 16 7 27 18 30 13 4 12 5 -5 6 -12
0 -24 7 -27 14 -3 6 -3 -6 1 -28z"/>
<path d="M3328 155 c-9 -20 -9 -28 2 -38 10 -9 11 -9 6 1 -10 17 3 54 16 46 7
-4 8 -2 4 4 -10 17 -15 15 -28 -13z"/>
<path d="M4290 161 c0 -25 6 -27 13 -6 4 8 2 17 -3 20 -6 4 -10 -3 -10 -14z"/>
<path d="M4692 168 c-7 -7 -11 -23 -11 -37 1 -21 2 -22 6 -6 10 45 17 50 23
15 l7 -35 2 32 c1 36 -10 48 -27 31z"/>
<path d="M4795 169 c-4 -6 -5 -12 -2 -15 2 -3 7 2 10 11 7 17 1 20 -8 4z"/>
<path d="M3105 160 c-4 -6 -2 -17 5 -24 8 -11 8 -15 -2 -19 -7 -3 -3 -4 10 -4
26 1 29 12 6 21 -9 4 -14 13 -10 21 6 17 0 20 -9 5z"/>
<path d="M3131 154 c0 -11 3 -14 6 -6 3 7 2 16 -1 19 -3 4 -6 -2 -5 -13z"/>
<path d="M3205 160 c3 -5 8 -10 11 -10 2 0 4 5 4 10 0 6 -5 10 -11 10 -5 0 -7
-4 -4 -10z"/>
<path d="M3282 150 c0 -14 2 -19 5 -12 2 6 2 18 0 25 -3 6 -5 1 -5 -13z"/>
<path d="M3302 140 c0 -19 2 -27 5 -17 2 9 2 25 0 35 -3 9 -5 1 -5 -18z"/>
<path d="M3387 163 c-4 -3 -7 -17 -7 -30 0 -24 0 -24 21 -4 12 11 18 24 14 30
-7 12 -19 14 -28 4z m23 -13 c0 -5 -4 -10 -10 -10 -5 0 -10 5 -10 10 0 6 5 10
10 10 6 0 10 -4 10 -10z"/>
<path d="M3498 143 c5 -21 7 -23 10 -9 2 10 0 22 -6 28 -6 6 -7 0 -4 -19z"/>
<path d="M3731 155 c-1 -11 9 -26 22 -34 21 -13 21 -13 6 5 -9 10 -19 26 -22
34 -4 11 -6 9 -6 -5z"/>
<path d="M3822 140 c0 -19 2 -27 5 -17 2 9 2 25 0 35 -3 9 -5 1 -5 -18z"/>
<path d="M3862 140 c0 -19 2 -27 5 -17 2 9 2 25 0 35 -3 9 -5 1 -5 -18z"/>
<path d="M3944 156 c-3 -8 -4 -23 -2 -33 3 -11 6 -6 9 15 6 34 2 42 -7 18z"/>
<path d="M4221 148 c1 -17 2 -19 6 -5 2 9 9 17 15 17 6 0 7 -8 3 -17 -5 -14
-3 -15 6 -6 13 13 4 33 -17 33 -8 0 -14 -9 -13 -22z"/>
<path d="M4322 145 c0 -16 2 -22 5 -12 2 9 2 23 0 30 -3 6 -5 -1 -5 -18z"/>
<path d="M4588 140 c-3 -17 -1 -30 4 -30 4 0 8 14 8 30 0 17 -2 30 -4 30 -2 0
-6 -13 -8 -30z"/>
<path d="M4612 140 c0 -19 2 -27 5 -17 2 9 2 25 0 35 -3 9 -5 1 -5 -18z"/>
<path d="M4650 138 c0 -36 4 -35 14 5 4 16 2 27 -4 27 -5 0 -10 -14 -10 -32z"/>
<path d="M4766 157 c3 -9 -3 -16 -15 -20 -12 -3 -21 -11 -20 -19 0 -10 2 -10
6 0 2 6 11 12 19 12 9 0 13 -4 9 -9 -3 -5 -1 -12 5 -16 6 -4 10 6 10 24 0 16
-4 33 -10 36 -5 3 -7 0 -4 -8z"/>
<path d="M4840 146 c0 -14 4 -27 8 -30 5 -3 6 8 4 25 -5 35 -12 38 -12 5z"/>
<path d="M4878 140 c-3 -16 -1 -35 4 -42 4 -8 8 4 8 30 0 49 -6 55 -12 12z"/>
<path d="M3251 144 c0 -11 3 -14 6 -6 3 7 2 16 -1 19 -3 4 -6 -2 -5 -13z"/>
<path d="M3040 140 c-11 -7 -11 -10 -2 -10 7 0 10 -4 7 -10 -3 -5 -1 -10 4
-10 6 0 11 9 11 20 0 23 0 23 -20 10z"/>
<path d="M3150 135 c0 -8 5 -17 12 -21 6 -4 8 -3 4 4 -3 6 2 12 11 14 15 3 14
5 -4 10 -16 4 -23 2 -23 -7z"/>
<path d="M3461 139 c-1 -9 7 -23 17 -30 15 -12 16 -12 6 1 -6 8 -14 22 -17 30
-5 13 -6 12 -6 -1z"/>
<path d="M3881 134 c0 -11 3 -14 6 -6 3 7 2 16 -1 19 -3 4 -6 -2 -5 -13z"/>
<path d="M3990 137 c0 -9 4 -18 9 -21 5 -4 8 1 7 9 -3 21 -16 31 -16 12z"/>
<path d="M4202 130 c0 -14 2 -19 5 -12 2 6 2 18 0 25 -3 6 -5 1 -5 -13z"/>
<path d="M3675 129 c-4 -6 -5 -12 -2 -15 2 -3 7 2 10 11 7 17 1 20 -8 4z"/>
<path d="M4541 124 c0 -11 3 -14 6 -6 3 7 2 16 -1 19 -3 4 -6 -2 -5 -13z"/>
<path d="M4565 129 c-4 -6 -5 -12 -2 -15 2 -3 7 2 10 11 7 17 1 20 -8 4z"/>
<path d="M3010 120 c0 -5 5 -10 11 -10 5 0 7 5 4 10 -3 6 -8 10 -11 10 -2 0
-4 -4 -4 -10z"/>
<path d="M3638 113 c7 -3 16 -2 19 1 4 3 -2 6 -13 5 -11 0 -14 -3 -6 -6z"/>
<path d="M3960 80 c-9 -6 -10 -10 -3 -10 6 0 15 5 18 10 8 12 4 12 -15 0z"/>
<path d="M4848 78 c5 -5 16 -8 23 -6 8 3 3 7 -10 11 -17 4 -21 3 -13 -5z"/>
</g>
</svg>
